<svg width="104" height="30" viewBox="0 0 104 30" fill="none" xmlns="http://www.w3.org/2000/svg">
<path fill-rule="evenodd" clip-rule="evenodd" d="M26.5825 21.6855L24.8681 29.6557H20.9252L27.4396 0.770734H32.1105L38.2392 29.6557H34.2534L32.5819 21.6855H26.5825ZM32.1105 18.4712L30.7819 11.5703C30.3961 9.5988 30.0104 7.02874 29.7111 4.97083H29.539C29.2397 7.07088 28.8097 9.72738 28.4254 11.5703L27.0539 18.4712H32.1105ZM53.2895 0V24.2992C53.2895 25.8856 53.3753 28.2 53.4603 29.6564H49.9895L49.7323 27.1285H49.6037C48.918 28.585 47.3323 30 45.2329 30C41.3757 30 39.0185 25.7992 39.0185 19.329C39.0185 11.9574 42.1464 8.48592 45.4472 8.48592C47.118 8.48592 48.4466 9.25808 49.1752 10.8431H49.2609V0H53.2895ZM49.2602 16.7568C49.2602 16.3718 49.2602 15.9004 49.2173 15.4704C49.003 13.5853 47.9316 11.9567 46.4751 11.9567C43.9457 11.9567 43.0893 15.4704 43.0893 19.3283C43.0893 23.6141 44.2036 26.6135 46.3465 26.6135C47.2465 26.6135 48.4459 26.1421 49.1316 23.657C49.2173 23.3141 49.2602 22.7991 49.2602 22.3291V16.7568ZM62.8855 29.9993C58.729 29.9993 55.7282 26.4421 55.7282 19.2862C55.7282 11.6996 59.2847 8.48521 63.0991 8.48521C67.2134 8.48521 70.1699 12.171 70.1699 19.1997C70.1699 27.4714 66.0984 29.9993 62.9276 29.9993H62.8855ZM63.0133 26.8285C65.4984 26.8285 66.0563 22.4141 66.0563 19.2433C66.0563 16.114 65.4991 11.6574 62.9283 11.6574C60.2704 11.6574 59.7568 16.114 59.7568 19.2433C59.7568 22.7141 60.3568 26.8285 62.9712 26.8285H63.0133ZM72.5986 0H76.6265V11.1853H76.7122C77.7837 9.30022 79.2409 8.48521 81.0838 8.48521C84.6403 8.48521 86.8696 12.5139 86.8696 18.8997C86.8696 26.3563 83.8267 29.9993 80.398 29.9993C78.3409 29.9993 77.1837 28.8843 76.2829 27.0414H76.1129L75.8979 29.6557H72.4271C72.5129 28.2421 72.5986 25.8849 72.5986 24.2984V0ZM76.6265 22.2841C76.6265 22.757 76.6694 23.2284 76.798 23.5706C77.4401 26.0999 78.6837 26.6135 79.4973 26.6135C81.8974 26.6135 82.7974 23.4427 82.7974 19.1569C82.7974 15.1711 81.8552 11.9567 79.4544 11.9567C78.1258 11.9567 77.0544 13.5425 76.7544 15.0425C76.6687 15.4711 76.6258 16.029 76.6258 16.4568V22.2841H76.6265ZM92.8141 20.0562C92.8569 25.4135 95.1705 26.7414 97.6134 26.7414C99.0706 26.7414 100.314 26.3992 101.214 25.9699L101.814 28.8843C100.571 29.5271 98.6849 29.8707 96.842 29.8707C91.614 29.8707 88.8711 25.9278 88.8711 19.499C88.8711 12.6846 91.999 8.48449 96.3277 8.48449C100.656 8.48449 102.671 12.6417 102.671 17.8711C102.671 18.899 102.627 19.5426 102.585 20.0991L92.8141 20.0562ZM98.8563 17.1854C98.8992 13.4996 97.6135 11.5288 96.0284 11.5288C93.9277 11.5288 92.9848 14.5718 92.8569 17.1854H98.8563Z" fill="#9B948E"/>
<path fill-rule="evenodd" clip-rule="evenodd" d="M21.2218 0.8479H33.2557V29.6557L21.2218 0.8479ZM12.7445 0.8479H0.702026V29.6557L12.7445 0.8479ZM16.9838 11.4646L24.6512 29.6557H19.6268L17.3338 23.862H11.7216L16.9838 11.4646Z" fill="#9B948E"/>
<path fill-rule="evenodd" clip-rule="evenodd" d="M102.329 8.43165C102.449 8.43221 102.569 8.45667 102.68 8.50363C102.791 8.55059 102.892 8.61911 102.977 8.70525C103.061 8.79138 103.128 8.89342 103.173 9.00547C103.218 9.11753 103.24 9.23738 103.239 9.3581C103.239 9.88097 102.835 10.2888 102.324 10.2888C101.818 10.2888 101.406 9.88169 101.406 9.3581C101.405 9.23692 101.428 9.11679 101.474 9.0046C101.52 8.89242 101.587 8.79037 101.673 8.70432C101.758 8.61826 101.86 8.54988 101.971 8.50309C102.083 8.4563 102.203 8.43202 102.324 8.43165H102.329ZM102.324 8.57523C101.917 8.57523 101.583 8.92595 101.583 9.3581C101.583 9.79883 101.917 10.1446 102.329 10.1446C102.74 10.1488 103.069 9.79883 103.069 9.36239C103.069 8.92595 102.74 8.57523 102.329 8.57523H102.324ZM102.151 9.89812H101.987V8.86381C102.074 8.85166 102.156 8.8388 102.28 8.8388C102.436 8.8388 102.539 8.87238 102.601 8.91738C102.663 8.96238 102.696 9.03238 102.696 9.13167C102.696 9.26739 102.605 9.35024 102.494 9.3831V9.39096C102.584 9.40739 102.646 9.49025 102.666 9.64239C102.691 9.80311 102.716 9.86454 102.733 9.89812H102.56C102.535 9.86454 102.511 9.77025 102.49 9.63453C102.465 9.50239 102.399 9.4531 102.267 9.4531H102.152V9.89812H102.151ZM102.151 9.32524H102.271C102.406 9.32524 102.523 9.27596 102.523 9.1481C102.523 9.05738 102.456 8.96666 102.271 8.96666C102.218 8.96666 102.18 8.97095 102.151 8.97524V9.32524ZM11.8421 0.8479C11.9628 0.848456 12.0823 0.872916 12.1935 0.919875C12.3047 0.966833 12.4056 1.03536 12.4902 1.12149C12.5748 1.20763 12.6415 1.30967 12.6865 1.42172C12.7314 1.53377 12.7537 1.65362 12.7521 1.77435C12.7521 2.29722 12.3486 2.70509 11.8378 2.70509C11.3314 2.70509 10.9192 2.29793 10.9192 1.77435C10.9186 1.65316 10.9418 1.53304 10.9877 1.42085C11.0335 1.30866 11.101 1.20662 11.1863 1.12056C11.2717 1.0345 11.3731 0.966123 11.4849 0.919335C11.5967 0.872547 11.7166 0.848274 11.8378 0.8479H11.8421ZM11.8378 0.991473C11.43 0.991473 11.0964 1.3422 11.0964 1.77435C11.0964 2.21507 11.43 2.56079 11.8421 2.56079C12.2536 2.56508 12.5836 2.21508 12.5836 1.77864C12.5836 1.3422 12.2536 0.991473 11.8421 0.991473H11.8378ZM11.665 2.31437H11.5V1.28005C11.5968 1.26399 11.6947 1.25587 11.7928 1.25577C11.9493 1.25577 12.0521 1.28791 12.1135 1.33363C12.1757 1.37863 12.2086 1.44934 12.2086 1.54791C12.2086 1.68363 12.1178 1.76649 12.0064 1.79935V1.80721C12.0971 1.82363 12.1593 1.9065 12.18 2.05936C12.2043 2.22008 12.2293 2.28151 12.2457 2.31508H12.0728C12.0478 2.28151 12.0228 2.18722 12.0028 2.0515C11.9778 1.91935 11.9121 1.87007 11.78 1.87007H11.665V2.31437ZM11.665 1.74149H11.7843C11.92 1.74149 12.0357 1.69221 12.0357 1.56434C12.0357 1.47363 11.97 1.38291 11.7843 1.38291C11.7307 1.38291 11.6935 1.3872 11.665 1.39149V1.74149Z" fill="#9B948E"/>
</svg>
