<svg width="93" height="30" viewBox="0 0 93 30" fill="none" xmlns="http://www.w3.org/2000/svg">
<g clip-path="url(#clip0_1_82)">
<path d="M12.1406 0.00332642H12.958C15.7955 0.0650121 18.5868 1.2062 20.5916 3.2264C19.8514 3.98205 19.0957 4.70686 18.3709 5.46251C17.2451 4.4447 15.888 3.6582 14.4076 3.38062C12.2177 2.91798 9.85826 3.33435 8.02311 4.58349C6.01832 5.89431 4.66123 8.115 4.36823 10.4899C4.04438 12.834 4.7075 15.3014 6.23422 17.1211C7.69926 18.8946 9.93537 20.0049 12.2486 20.082C14.4076 20.2054 16.6591 19.5423 18.2321 18.031C19.4658 16.9669 20.0364 15.3476 20.2215 13.7747C17.6615 13.7747 15.1015 13.7901 12.5416 13.7747V10.5978H23.3212C23.8763 14.006 23.0744 17.8459 20.4836 20.2825C18.7564 22.0097 16.3661 23.0275 13.9295 23.228C11.57 23.4593 9.13345 23.0121 7.03614 21.8709C4.52244 20.5292 2.51765 18.2623 1.53068 15.5944C0.605395 13.1424 0.589974 10.3665 1.45357 7.8991C2.24007 5.64757 3.75137 3.6582 5.69447 2.27028C7.56046 0.897769 9.82742 0.142119 12.1406 0.00332642Z" fill="#9B948E"/>
<path d="M73.9807 0.804565H77.2809V22.8264C76.186 22.8264 75.0756 22.8418 73.9807 22.811C73.9961 15.4858 73.9807 8.14517 73.9807 0.804565Z" fill="#9B948E"/>
<path d="M30.6619 8.43819C32.6975 8.05266 34.9028 8.48446 36.5837 9.70275C38.1105 10.7822 39.1745 12.4786 39.4984 14.3292C39.9148 16.4727 39.3904 18.8168 38.0025 20.5132C36.5066 22.41 34.0546 23.4278 31.6643 23.2736C29.4744 23.1502 27.3463 22.0553 26.0509 20.2664C24.5858 18.2925 24.2311 15.5783 25.0331 13.2651C25.835 10.7822 28.1019 8.88541 30.6619 8.43819ZM31.1245 11.3683C30.2918 11.5842 29.5207 12.0622 28.9655 12.7408C27.4697 14.5297 27.5622 17.4443 29.2123 19.1098C30.153 20.0659 31.5718 20.5132 32.8826 20.251C34.1009 20.0351 35.165 19.2178 35.751 18.1383C36.7688 16.3031 36.4758 13.774 34.9182 12.3398C33.9158 11.4145 32.4508 11.029 31.1245 11.3683Z" fill="#9B948E"/>
<path d="M47.0086 8.4382C49.3372 7.99098 51.8818 8.63868 53.6244 10.2733C56.4619 12.8179 56.7704 17.5831 54.3492 20.5132C52.8842 22.3638 50.5093 23.3816 48.1652 23.2736C45.9291 23.2119 43.7239 22.1016 42.3976 20.2664C40.9017 18.2462 40.5779 15.4704 41.4261 13.1109C42.2742 10.7051 44.4949 8.87 47.0086 8.4382ZM47.4713 11.3683C46.6385 11.5842 45.8674 12.0622 45.3123 12.7254C43.8318 14.4834 43.8935 17.3518 45.4819 19.0327C46.4226 20.0351 47.8876 20.5286 49.2447 20.251C50.4476 20.0197 51.5271 19.2178 52.1131 18.1383C53.1155 16.2877 52.8225 13.7586 51.2495 12.3244C50.2471 11.3991 48.7821 11.029 47.4713 11.3683Z" fill="#9B948E"/>
<path d="M60.8725 9.3326C62.646 8.22226 65.0054 7.91383 66.9177 8.86996C67.5191 9.13212 68.0126 9.57934 68.4907 10.0266C68.5061 9.61019 68.4907 9.17839 68.5061 8.74659C69.5393 8.76201 70.5726 8.74659 71.6212 8.76201V22.3637C71.6058 24.4148 71.0815 26.5892 69.601 28.0851C67.9818 29.7352 65.4989 30.2441 63.2628 29.9048C60.8725 29.5501 58.7906 27.8075 57.8653 25.6022C58.7906 25.155 59.7622 24.8003 60.7183 24.3839C61.258 25.6485 62.353 26.728 63.7255 26.9747C65.098 27.2215 66.6864 26.8822 67.5808 25.741C68.537 24.569 68.537 22.9652 68.4907 21.531C67.7813 22.2249 66.964 22.8418 65.977 23.0731C63.8334 23.6745 61.4739 22.9343 59.8238 21.4847C58.1583 20.0351 57.1714 17.799 57.2639 15.5783C57.3101 13.0646 58.7289 10.6434 60.8725 9.3326ZM64.0647 11.3065C63.124 11.4608 62.245 11.9851 61.6436 12.7099C60.194 14.4371 60.194 17.1975 61.659 18.8939C62.4918 19.8963 63.8334 20.4515 65.1288 20.3127C66.3471 20.1893 67.4729 19.4182 68.0743 18.3541C69.0921 16.5498 68.9225 14.0978 67.55 12.5248C66.7018 11.5533 65.3447 11.0752 64.0647 11.3065Z" fill="#9B948E"/>
<path d="M81.2442 10.1191C83.0948 8.39194 85.9478 7.80592 88.3227 8.71579C90.5742 9.56397 92.0084 11.7076 92.7332 13.9128C89.3868 15.3007 86.0557 16.6733 82.7093 18.0612C83.1719 18.9402 83.8813 19.7421 84.8374 20.066C86.1791 20.544 87.7829 20.3744 88.9087 19.48C89.3559 19.1407 89.7106 18.6935 90.0499 18.2617C90.8981 18.8323 91.7463 19.3874 92.5944 19.958C91.3916 21.7623 89.3713 23.0269 87.1969 23.2274C84.7912 23.5204 82.2312 22.5951 80.6736 20.7137C78.1137 17.7528 78.3604 12.7871 81.2442 10.1191ZM82.8943 12.9721C82.37 13.7278 82.1541 14.653 82.1695 15.5629C84.4056 14.6376 86.6417 13.7123 88.8779 12.7716C88.5077 11.908 87.6133 11.3837 86.7034 11.2449C85.2384 10.9827 83.7117 11.7692 82.8943 12.9721Z" fill="#9B948E"/>
</g>
<defs>
<clipPath id="clip0_1_82">
<rect width="91.9118" height="30" fill="white" transform="translate(0.821411)"/>
</clipPath>
</defs>
</svg>
