<svg width="119" height="30" viewBox="0 0 119 30" fill="none" xmlns="http://www.w3.org/2000/svg">
<g clip-path="url(#clip0_1_74)">
<path fill-rule="evenodd" clip-rule="evenodd" d="M38.1679 23.6215L39.6475 20.1834C41.2457 21.3784 43.375 21.9997 45.4758 21.9997C47.0266 21.9997 48.0082 21.4021 48.0082 20.4963C47.9845 17.9639 38.718 19.9462 38.6469 13.5963C38.6232 10.3715 41.4875 7.88649 45.547 7.88649C47.9608 7.88649 50.3699 8.48403 52.0914 9.84507L50.7066 13.3544C49.1322 12.349 47.1736 11.6329 45.3098 11.6329C44.0436 11.6329 43.209 12.2305 43.209 12.994C43.2327 15.479 52.5704 14.1179 52.6652 20.1834C52.6652 23.4793 49.872 25.7983 45.86 25.7983C42.9197 25.7935 40.2213 25.1012 38.1679 23.6215ZM94.9858 18.9409C94.246 20.2308 92.8612 21.1129 91.2583 21.1129C88.8919 21.1129 86.9855 19.2017 86.9855 16.84C86.9855 14.4783 88.8966 12.5672 91.2583 12.5672C92.8565 12.5672 94.246 13.4492 94.9858 14.7392L99.0689 12.4723C97.5419 9.75023 94.6016 7.88649 91.2583 7.88649C86.312 7.88649 82.3 11.8985 82.3 16.8448C82.3 21.791 86.312 25.803 91.2583 25.803C94.6254 25.803 97.5419 23.963 99.0689 21.2172L94.9858 18.9409ZM54.7186 0.455261H59.8309V25.4616H54.7186V0.455261ZM101.075 0.455261V25.4616H106.187V17.9592L112.253 25.4616H118.797L111.081 16.5507L118.223 8.23742H111.963L106.182 15.1375V0.455261H101.075Z" fill="#9B948E"/>
<path d="M75.0206 18.9883C74.2808 20.2071 72.7537 21.1129 71.0323 21.1129C68.6658 21.1129 66.7594 19.2017 66.7594 16.84C66.7594 14.4783 68.6706 12.5672 71.0323 12.5672C72.7537 12.5672 74.2808 13.5204 75.0206 14.7629V18.9883ZM75.0206 8.24216V10.2719C74.1859 8.86341 72.1088 7.88174 69.932 7.88174C65.4411 7.88174 61.908 11.8463 61.908 16.8163C61.908 21.7863 65.4411 25.7983 69.932 25.7983C72.104 25.7983 74.1812 24.8214 75.0206 23.4081V25.4379H80.1328V8.24216H75.0206Z" fill="#9B948E"/>
<path fill-rule="evenodd" clip-rule="evenodd" d="M6.56972 18.9646C6.56972 20.7098 5.16125 22.1182 3.41607 22.1182C1.67089 22.1182 0.262421 20.705 0.262421 18.9646C0.262421 17.2241 1.67089 15.8109 3.41607 15.8109H6.56972V18.9646ZM8.14418 18.9646C8.14418 17.2194 9.55265 15.8109 11.2978 15.8109C13.043 15.8109 14.4515 17.2194 14.4515 18.9646V26.8463C14.4515 28.5915 13.043 30 11.2978 30C9.55265 30 8.14418 28.5915 8.14418 26.8463V18.9646Z" fill="#9B948E"/>
<path fill-rule="evenodd" clip-rule="evenodd" d="M11.2978 6.3073C9.55265 6.3073 8.14418 4.89883 8.14418 3.15365C8.14418 1.40847 9.55265 0 11.2978 0C13.043 0 14.4515 1.40847 14.4515 3.15365V6.3073H11.2978ZM11.2978 7.90547C13.043 7.90547 14.4515 9.31394 14.4515 11.0591C14.4515 12.8043 13.043 14.2128 11.2978 14.2128H3.39236C1.64718 14.2128 0.238708 12.7996 0.238708 11.0591C0.238708 9.31868 1.64718 7.90547 3.39236 7.90547H11.2978Z" fill="#9B948E"/>
<path fill-rule="evenodd" clip-rule="evenodd" d="M23.9314 11.0591C23.9314 9.31394 25.3399 7.90547 27.0851 7.90547C28.8302 7.90547 30.2387 9.31394 30.2387 11.0591C30.2387 12.8043 28.8302 14.2128 27.0851 14.2128H23.9314V11.0591ZM22.357 11.0591C22.357 12.8043 20.9485 14.2128 19.2033 14.2128C17.4581 14.2128 16.0497 12.8043 16.0497 11.0591V3.15365C16.0497 1.40847 17.4581 0 19.2033 0C20.9485 0 22.357 1.40847 22.357 3.15365V11.0591Z" fill="#9B948E"/>
<path fill-rule="evenodd" clip-rule="evenodd" d="M19.2033 23.6927C20.9485 23.6927 22.357 25.1012 22.357 26.8463C22.357 28.5915 20.9485 30 19.2033 30C17.4581 30 16.0497 28.5915 16.0497 26.8463V23.6927H19.2033ZM19.2033 22.1182C17.4581 22.1182 16.0497 20.7098 16.0497 18.9646C16.0497 17.2194 17.4581 15.8109 19.2033 15.8109H27.1088C28.854 15.8109 30.2624 17.2194 30.2624 18.9646C30.2624 20.7098 28.854 22.1182 27.1088 22.1182H19.2033Z" fill="#9B948E"/>
</g>
<defs>
<clipPath id="clip0_1_74">
<rect width="118.558" height="30" fill="white" transform="translate(0.238708)"/>
</clipPath>
</defs>
</svg>
