<svg width="101" height="30" viewBox="0 0 101 30" fill="none" xmlns="http://www.w3.org/2000/svg">
<g clip-path="url(#clip0_1_89)">
<path d="M15.797 3.05176e-05C7.51292 3.05176e-05 0.797058 6.71571 0.797058 14.9998C0.797058 23.2847 7.51292 30 15.797 30C24.0814 30 30.7969 23.2847 30.7969 14.9998C30.7969 6.71624 24.0817 0.000746442 15.7968 0.000746442L15.797 3.05176e-05ZM22.6758 21.6339C22.4064 22.0758 21.8307 22.2143 21.3903 21.9451C17.8679 19.7922 13.4344 19.3059 8.21308 20.4987C7.70994 20.614 7.20841 20.2986 7.09379 19.7956C6.97861 19.2925 7.2926 18.791 7.79699 18.6763C13.5109 17.37 18.4121 17.9323 22.3658 20.3482C22.8064 20.6187 22.9461 21.1937 22.6756 21.6343L22.6758 21.6339ZM24.5118 17.5502C24.1725 18.1007 23.4528 18.2733 22.9031 17.9353C18.8721 15.4574 12.7253 14.7397 7.95624 16.1873C7.33773 16.3741 6.68449 16.0256 6.49678 15.4082C6.31049 14.7897 6.65924 14.1377 7.27666 13.9496C12.7242 12.2967 19.4963 13.0973 24.1265 15.9426C24.6764 16.2812 24.8501 17.0012 24.5116 17.5504L24.5118 17.5502ZM24.6694 13.2972C19.8343 10.4258 11.8589 10.1618 7.24315 11.5627C6.50197 11.7874 5.71814 11.369 5.49353 10.6278C5.26891 9.88628 5.68698 9.10299 6.4287 8.87766C11.7272 7.26919 20.5354 7.57995 26.1013 10.8841C26.768 11.2798 26.9867 12.1408 26.5915 12.8066C26.1975 13.4733 25.3341 13.6931 24.6696 13.2972H24.6694ZM41.6068 13.8475C39.017 13.2299 38.5559 12.7964 38.5559 11.8856C38.5559 11.0251 39.3661 10.446 40.5708 10.446C41.7387 10.446 42.8967 10.8858 44.1107 11.791C44.1475 11.8184 44.1935 11.8294 44.2388 11.8222C44.2841 11.8154 44.3242 11.7905 44.3508 11.7531L45.6153 9.97047C45.6673 9.89703 45.6531 9.79583 45.5831 9.73976C44.1381 8.58033 42.511 8.01664 40.6092 8.01664C37.8128 8.01664 35.8595 9.6948 35.8595 12.0959C35.8595 14.6707 37.5444 15.5824 40.4562 16.2862C42.9345 16.857 43.3527 17.3353 43.3527 18.1902C43.3527 19.1376 42.5069 19.7265 41.1458 19.7265C39.6341 19.7265 38.401 19.2173 37.0216 18.0227C36.9874 17.9932 36.9405 17.9798 36.8971 17.9823C36.8514 17.986 36.8097 18.0072 36.7807 18.0421L35.3628 19.7296C35.3033 19.7996 35.3108 19.9042 35.3796 19.9647C36.9845 21.3975 38.9584 22.1543 41.0885 22.1543C44.1018 22.1543 46.049 20.5078 46.049 17.9595C46.0544 15.8083 44.7665 14.6172 41.6122 13.8498L41.6068 13.8475ZM52.8662 11.2933C51.5601 11.2933 50.4888 11.8077 49.6054 12.8618V11.6753C49.6054 11.5816 49.5294 11.5053 49.4359 11.5053H47.1169C47.0232 11.5053 46.9474 11.5816 46.9474 11.6753V24.8588C46.9474 24.9525 47.0232 25.0288 47.1169 25.0288H49.4359C49.5294 25.0288 49.6054 24.9525 49.6054 24.8588V20.6973C50.489 21.6889 51.5605 22.1734 52.8662 22.1734C55.2931 22.1734 57.7499 20.3052 57.7499 16.734C57.7535 13.1618 55.296 11.2931 52.8689 11.2931L52.8662 11.2933ZM55.0533 16.734C55.0533 18.5526 53.9331 19.8216 52.329 19.8216C50.7433 19.8216 49.5472 18.4949 49.5472 16.734C49.5472 14.9733 50.7433 13.6463 52.329 13.6463C53.9071 13.6462 55.0534 14.9444 55.0534 16.7338L55.0533 16.734ZM64.0468 11.2933C60.9214 11.2933 58.4728 13.6999 58.4728 16.7728C58.4728 19.8123 60.9045 22.1937 64.0085 22.1937C67.145 22.1937 69.6011 19.7951 69.6011 16.734C69.6011 13.6834 67.1615 11.2936 64.0466 11.2936L64.0468 11.2933ZM64.0468 19.8397C62.3844 19.8397 61.1311 18.504 61.1311 16.7331C61.1311 14.9546 62.3411 13.6641 64.0085 13.6641C65.6816 13.6641 66.9433 14.9997 66.9433 16.7719C66.9433 18.5501 65.7253 19.8397 64.047 19.8397H64.0468ZM76.2752 11.5053H73.7233V8.8963C73.7233 8.8028 73.6477 8.7265 73.554 8.7265H71.2354C71.1415 8.7265 71.0654 8.8028 71.0654 8.8963V11.5053H69.9504C69.857 11.5053 69.7814 11.5816 69.7814 11.6753V13.6684C69.7814 13.7619 69.857 13.8383 69.9504 13.8383H71.0654V18.9953C71.0654 21.0794 72.1026 22.136 74.1484 22.136C74.9802 22.136 75.6703 21.9642 76.3207 21.5954C76.3735 21.5659 76.4063 21.5089 76.4063 21.4484V19.5504C76.4063 19.4919 76.3759 19.4365 76.3257 19.4059C76.2752 19.3742 76.2123 19.3726 76.1606 19.3982C75.7138 19.623 75.282 19.7267 74.7993 19.7267C74.0552 19.7267 73.7233 19.3889 73.7233 18.6317V13.8393H76.2752C76.3689 13.8393 76.4443 13.763 76.4443 13.6693V11.6764C76.4479 11.5827 76.3726 11.5064 76.2777 11.5064L76.2752 11.5053ZM85.1666 11.5155V11.1951C85.1666 10.2524 85.5281 9.83201 86.3388 9.83201C86.8222 9.83201 87.2106 9.92801 87.6455 10.0731C87.699 10.0899 87.7549 10.0815 87.7984 10.0495C87.8432 10.0174 87.8685 9.96599 87.8685 9.91153V7.95735C87.8685 7.88265 87.8205 7.81656 87.7485 7.79453C87.289 7.65785 86.7012 7.51761 85.821 7.51761C83.6791 7.51761 82.5469 8.72379 82.5469 11.0045V11.4953H81.4327C81.3392 11.4953 81.2626 11.5716 81.2626 11.6651V13.6684C81.2626 13.7619 81.3392 13.8383 81.4327 13.8383H82.5469V21.7928C82.5469 21.8865 82.6225 21.9628 82.716 21.9628H85.035C85.1287 21.9628 85.205 21.8865 85.205 21.7928V13.8389H87.3702L90.6869 21.7914C90.3104 22.627 89.9401 22.7932 89.4347 22.7932C89.0261 22.7932 88.5959 22.6712 88.156 22.4305C88.1146 22.4077 88.0655 22.404 88.0209 22.4178C87.9767 22.4333 87.9394 22.4663 87.9206 22.5093L87.1346 24.2337C87.0972 24.3152 87.1292 24.4108 87.2077 24.4531C88.0282 24.8975 88.7689 25.0872 89.6844 25.0872C91.3968 25.0872 92.3432 24.2895 93.1776 22.1437L97.2007 11.7477C97.221 11.6954 97.2149 11.6363 97.1828 11.5899C97.1509 11.5438 97.0995 11.5161 97.0433 11.5161H94.6291C94.5568 11.5161 94.4921 11.5621 94.4684 11.63L91.9954 18.6941L89.2866 11.6253C89.2619 11.5596 89.1984 11.5161 89.1282 11.5161H85.1661L85.1666 11.5155ZM80.0116 11.5053H77.6926C77.5989 11.5053 77.5226 11.5816 77.5226 11.6753V21.7928C77.5226 21.8865 77.5989 21.9628 77.6926 21.9628H80.0116C80.1051 21.9628 80.1816 21.8865 80.1816 21.7928V11.676C80.1816 11.6537 80.1773 11.6315 80.1687 11.6109C80.1602 11.5902 80.1477 11.5715 80.1319 11.5557C80.116 11.5399 80.0973 11.5273 80.0766 11.5188C80.0559 11.5103 80.0338 11.506 80.0114 11.506L80.0116 11.5053ZM78.8652 6.8986C77.9466 6.8986 77.2011 7.64228 77.2011 8.56099C77.2011 9.48023 77.9467 10.2248 78.8653 10.2248C79.7836 10.2248 80.5284 9.48023 80.5284 8.56099C80.5284 7.64247 79.7832 6.8986 78.8662 6.8986H78.8652ZM99.1809 14.7583C98.2631 14.7583 97.5489 14.0212 97.5489 13.1262C97.5489 12.2311 98.2724 11.4856 99.1895 11.4856C100.107 11.4856 100.821 12.2225 100.821 13.1169C100.821 14.0119 100.098 14.7583 99.1807 14.7583H99.1809ZM99.1898 11.6479C98.3539 11.6479 97.7214 12.3124 97.7214 13.1262C97.7214 13.9396 98.3494 14.5951 99.1814 14.5951C100.017 14.5951 100.65 13.9311 100.65 13.1169C100.65 12.3035 100.022 11.6479 99.1906 11.6479H99.1898ZM99.5517 13.2847L100.013 13.931H99.624L99.2085 13.3381H98.8511V13.931H98.5253V12.2179H99.2893C99.6873 12.2179 99.949 12.4215 99.949 12.7644C99.9507 13.0452 99.7878 13.2168 99.5531 13.2847H99.5517V13.2847ZM99.2758 12.5118H98.8509V13.0536H99.2758C99.4879 13.0536 99.6145 12.9499 99.6145 12.7825C99.6145 12.6062 99.4873 12.5118 99.276 12.5118H99.2758V12.5118Z" fill="#9B948E"/>
</g>
<defs>
<clipPath id="clip0_1_89">
<rect width="100.024" height="30" fill="white" transform="translate(0.797058)"/>
</clipPath>
</defs>
</svg>
